<svg width="56" height="56" viewBox="0 0 56 56" fill="none" xmlns="http://www.w3.org/2000/svg">
<g clip-path="url(#clip0_1_149)">
<path d="M36.5078 46.976L9.97568 40.8792C9.09258 40.6763 8.54122 39.796 8.74411 38.9129L17.3933 1.27356C17.5962 0.39047 18.4765 -0.16089 19.3596 0.0420009L45.8916 6.13878C46.7747 6.34167 47.326 7.22203 47.1231 8.10513L38.474 45.7445C38.2712 46.6275 37.3908 47.1789 36.5078 46.976Z" fill="#9DC6FB"/>
<path d="M45.892 6.13889L44.4653 5.8111L36.1544 41.9789C35.9457 42.8868 35.0405 43.4538 34.1326 43.2451L9.07202 37.4864L8.74422 38.9131C8.54133 39.796 9.09258 40.6762 9.97557 40.8791L36.5081 46.976C37.391 47.1789 38.2712 46.6277 38.4741 45.7447L47.1234 8.1048C47.3262 7.22204 46.7749 6.34179 45.892 6.13889Z" fill="#80B4FB"/>
<path d="M37.0072 50.0953H9.78371C8.87765 50.0953 8.14309 49.3607 8.14309 48.4546V9.83445C8.14309 8.92839 8.87765 8.19383 9.78371 8.19383H37.0073C37.9133 8.19383 38.6479 8.92839 38.6479 9.83445V48.4546C38.6478 49.3607 37.9132 50.0953 37.0072 50.0953Z" fill="#FCC200"/>
<path d="M37.0075 8.19383H35.5436V45.3042C35.5436 46.2359 34.7884 46.9911 33.8567 46.9911H8.14309V48.455C8.14309 49.3609 8.87754 50.0953 9.78338 50.0953H37.0075C37.9134 50.0953 38.6478 49.3608 38.6478 48.455V9.83412C38.6478 8.92817 37.9134 8.19383 37.0075 8.19383Z" fill="#EAB14D"/>
<path d="M19.7227 17.7731H12.2833C11.8174 17.7731 11.4399 17.3955 11.4399 16.9297C11.4399 16.4639 11.8176 16.0863 12.2833 16.0863H19.7227C20.1886 16.0863 20.5661 16.4639 20.5661 16.9297C20.5661 17.3955 20.1886 17.7731 19.7227 17.7731Z" fill="#E7A52E"/>
<path d="M19.7227 22.4171H12.2833C11.8174 22.4171 11.4399 22.0395 11.4399 21.5737C11.4399 21.1078 11.8176 20.7303 12.2833 20.7303H19.7227C20.1886 20.7303 20.5661 21.1078 20.5661 21.5737C20.5661 22.0395 20.1886 22.4171 19.7227 22.4171Z" fill="#E7A52E"/>
<path d="M19.7227 27.0612H12.2833C11.8174 27.0612 11.4399 26.6837 11.4399 26.2178C11.4399 25.752 11.8176 25.3744 12.2833 25.3744H19.7227C20.1886 25.3744 20.5661 25.752 20.5661 26.2178C20.5661 26.6837 20.1886 27.0612 19.7227 27.0612Z" fill="#E7A52E"/>
<path d="M19.7227 31.7054H12.2833C11.8174 31.7054 11.4399 31.3278 11.4399 30.862C11.4399 30.3962 11.8176 30.0186 12.2833 30.0186H19.7227C20.1886 30.0186 20.5661 30.3962 20.5661 30.862C20.5661 31.3278 20.1886 31.7054 19.7227 31.7054Z" fill="#E7A52E"/>
<path d="M19.7227 36.3493H12.2833C11.8174 36.3493 11.4399 35.9718 11.4399 35.506C11.4399 35.0401 11.8176 34.6626 12.2833 34.6626H19.7227C20.1886 34.6626 20.5661 35.0401 20.5661 35.506C20.5661 35.9718 20.1886 36.3493 19.7227 36.3493Z" fill="#E7A52E"/>
<path d="M19.7227 40.9935H12.2833C11.8174 40.9935 11.4399 40.616 11.4399 40.1501C11.4399 39.6843 11.8176 39.3068 12.2833 39.3068H19.7227C20.1886 39.3068 20.5661 39.6843 20.5661 40.1501C20.5661 40.616 20.1886 40.9935 19.7227 40.9935Z" fill="#E7A52E"/>
<path d="M36.7753 14.0984H19.0394C18.1076 14.0984 17.3521 14.8538 17.3521 15.7857V54.3128C17.3521 55.2445 18.1075 56 19.0394 56H46.1697C47.1015 56 47.8569 55.2447 47.8569 54.3128V25.18C47.8569 24.5833 47.6199 24.0112 47.1981 23.5892L38.366 14.7573C37.9442 14.3355 37.3719 14.0984 36.7753 14.0984Z" fill="#F9F6F9"/>
<path d="M47.1981 23.5893L44.1689 20.5602C44.5908 20.9821 44.8277 21.5542 44.8277 22.1508V51.2835C44.8277 52.2154 44.0723 52.9707 43.1405 52.9707H17.3521V54.3128C17.3521 55.2445 18.1075 56 19.0394 56H46.1697C47.1015 56 47.8569 55.2447 47.8569 54.3128V25.18C47.8569 24.5833 47.6199 24.0112 47.1981 23.5893Z" fill="#E7ECF6"/>
<path d="M47.198 23.5893L38.366 14.7574C38.0554 14.4468 37.6631 14.2375 37.2398 14.1481V23.5908C37.2398 24.212 37.7433 24.7156 38.3646 24.7156H47.8074C47.718 24.2922 47.5086 23.8999 47.198 23.5893Z" fill="#E7ECF6"/>
<path d="M47.198 23.5893L45.2364 21.6278H37.2398V23.5908C37.2398 24.2119 37.7433 24.7156 38.3646 24.7156H47.8074C47.718 24.2923 47.5086 23.8999 47.198 23.5893Z" fill="#D8E2F1"/>
<path d="M42.0001 36.9362C42.4659 36.9362 42.8435 36.5586 42.8435 36.0928C42.8435 35.6269 42.4658 35.2494 42.0001 35.2494H25.303V32.2922H42.0001C42.4659 32.2922 42.8435 31.9146 42.8435 31.4488C42.8435 30.983 42.4658 30.6054 42.0001 30.6054H25.303V29.482C25.303 29.0161 24.9254 28.6385 24.4597 28.6385C23.9939 28.6385 23.6163 29.0161 23.6163 29.482V30.6054H21.16C20.6942 30.6054 20.3166 30.983 20.3166 31.4488C20.3166 31.9146 20.6943 32.2922 21.16 32.2922H23.6163V35.2494H21.16C20.6942 35.2494 20.3166 35.6269 20.3166 36.0928C20.3166 36.5586 20.6943 36.9362 21.16 36.9362H23.6163V39.8934H21.16C20.6942 39.8934 20.3166 40.271 20.3166 40.7368C20.3166 41.2027 20.6943 41.5802 21.16 41.5802H23.6163V44.5374H21.16C20.6942 44.5374 20.3166 44.915 20.3166 45.3808C20.3166 45.8466 20.6943 46.2243 21.16 46.2243H23.6163V47.3461C23.6163 47.8121 23.9939 48.1896 24.4597 48.1896C24.9254 48.1896 25.303 47.8121 25.303 47.3461V46.2243H42.0001C42.4659 46.2243 42.8435 45.8467 42.8435 45.3808C42.8435 44.915 42.4658 44.5374 42.0001 44.5374H25.303V41.5802H42.0001C42.4659 41.5802 42.8435 41.2027 42.8435 40.7368C42.8435 40.271 42.4658 39.8934 42.0001 39.8934H25.303V36.9362H42.0001Z" fill="#D8E2F1"/>
</g>
<defs>
<clipPath id="clip0_1_149">
<rect width="56" height="56" fill="white"/>
</clipPath>
</defs>
</svg>
