<svg version="1.1" viewBox="0.0 0.0 960.0 540.0" fill="none" stroke="none" stroke-linecap="square" stroke-miterlimit="10" xmlns:xlink="http://www.w3.org/1999/xlink" xmlns="http://www.w3.org/2000/svg"><clipPath id="g10434550f6e_0_0.0"><path d="m0 0l960.0 0l0 540.0l-960.0 0l0 -540.0z" clip-rule="nonzero"/></clipPath><g clip-path="url(#g10434550f6e_0_0.0)"><path fill="#ffffff" d="m0 0l960.0 0l0 540.0l-960.0 0z" fill-rule="evenodd"/><path fill="#2d92ff" d="m370.51968 141.3517l276.88187 0l0 148.50395l-276.88187 0z" fill-rule="evenodd"/><path fill="#ffffff" d="m382.2362 152.83202l127.33859 0l0 125.54332l-127.33859 0z" fill-rule="evenodd"/><path fill="#2d92ff" d="m409.3685 261.48367l0 -84.734375l11.125 0l52.359375 71.296875l0 -71.296875l9.59375 0l0 84.734375l-11.140625 0l-52.34375 -71.546875l0 71.546875l-9.59375 0z" fill-rule="nonzero"/><path fill="#2d92ff" d="m515.06903 152.83202l127.33856 0l0 125.54332l-127.33856 0z" fill-rule="evenodd"/><path fill="#ffffff" d="m548.92126 261.48367l0 -90.046875l40.796875 0q14.609375 0 23.21875 8.125q8.625 8.109375 8.625 21.796875q0 13.6875 -8.625 21.8125q-8.609375 8.109375 -23.21875 8.109375l-25.890625 0l0 30.203125l-14.90625 0zm14.90625 -44.484375l25.25 0q8.921875 0 13.234375 -4.09375q4.328125 -4.109375 4.328125 -11.546875q0 -7.3125 -4.328125 -11.40625q-4.3125 -4.109375 -13.234375 -4.109375l-25.25 0l0 31.15625z" fill-rule="nonzero"/></g></svg>