<svg width="40" height="40" viewBox="0 0 40 40" fill="none" xmlns="http://www.w3.org/2000/svg">
<g clip-path="url(#clip0_1_13)">
<path d="M12.1105 16.4322C11.5577 15.8292 10.603 15.7789 9.99991 16.3317C9.39693 16.8845 9.34663 17.8392 9.8994 18.4422L17.4874 26.6835C17.7889 26.985 18.1406 27.186 18.5426 27.186C18.5426 27.186 18.5426 27.186 18.5928 27.186C18.9949 27.186 19.3968 27.0352 19.648 26.7337L38.8442 7.58797C39.4472 6.98499 39.4472 6.03017 38.8442 5.4774C38.2412 4.87442 37.2864 4.87442 36.7336 5.4774L18.6432 23.5176L12.1105 16.4322Z" fill="#78DB57"/>
<path d="M38.4925 18.4925C37.6382 18.4925 36.985 19.1457 36.985 20C36.985 29.3467 29.3468 36.9849 20.0001 36.9849C10.6533 36.9849 3.01509 29.3468 3.01509 20.0001C3.01509 10.6534 10.6533 3.01509 20.0001 3.01509C20.8544 3.01509 21.5076 2.3618 21.5076 1.50759C21.5076 0.653379 20.8543 0 20.0001 0C8.99495 0 0 8.99495 0 20.0001C0 31.0052 8.99495 40.0001 20.0001 40.0001C31.0052 40.0001 40.0001 31.0052 40.0001 20.0001C40 19.1457 39.3468 18.4925 38.4925 18.4925Z" fill="#78DB57"/>
</g>
<defs>
<clipPath id="clip0_1_13">
<rect width="40" height="40" fill="white"/>
</clipPath>
</defs>
</svg>
